<?xml version="1.0" encoding="UTF-8"?>
<svg width="1280" height="256" version="1.1" xmlns="http://www.w3.org/2000/svg"><title>© 2022 NinStar</title><g transform="translate(-4490 -412)"><rect x="4490" y="412" width="1280" height="256"/><path d="m5160.9 593.41c-2.4419-0.76444-2.5281-0.8863-2.7178-3.8486-0.1757-2.7488-0.073-3.009 0.9468-2.5658 2.5806 1.1158 4.9699 1.0351 6.5205-0.22051l1.5542-1.2578 0.1758-33.151 0.1681-33.151h6.9527l-0.1834 34.198c-0.1681 31.324-0.2774 34.37-1.3003 36.241-0.613 1.1236-1.8227 2.5062-2.6879 3.0728-2.0732 1.3583-6.2985 1.6642-9.4333 0.68256zm-40.659-19.865c-5.4271-1.4186-9.2324-3.7335-13.109-7.9756-8.2396-9.0156-9.8683-21.161-4.3552-32.48 1.9784-4.0603 8.2638-10.173 12.524-12.179 11.174-5.2608 23.849-3.1034 32.363 5.5084 11.088 11.214 11.303 27.805 0.5182 39.46-7.0381 7.6029-17.349 10.432-27.934 7.6652zm16.517-7.1995c4.4845-2.0531 8.3696-5.9337 10.485-10.475 1.403-3.0095 1.6614-4.44 1.6696-9.247 0-5.1654-0.1759-6.0723-2.0617-9.8952-2.32-4.713-6.3577-8.7197-10.85-10.767-2.1499-0.97975-4.134-1.2928-8.1951-1.2928-4.0604 0-6.0454 0.31302-8.1945 1.2928-4.4933 2.0473-8.531 6.054-10.851 10.767-1.8847 3.8298-2.0701 4.7204-2.0535 9.8952 0 6.1327 1.0828 9.4843 4.3744 13.799 5.5876 7.3255 16.909 9.9369 25.678 5.9226zm70.475 7.1995c-7.8243-2.0451-13.295-6.621-17.029-14.243-5.5307-11.288-3.2712-24.77 5.6451-33.686 5.4841-5.4844 13.156-8.1459 21.512-7.4626 13.935 1.14 23.702 10.813 25.508 25.265l0.4381 3.5333h-49.433l0.4454 3.278c0.6425 4.697 2.3586 8.261 5.6743 11.805 4.3283 4.6281 7.5711 5.9718 14.494 6.0062 5.2007 0.0219 6.0504-0.15253 9.9552-2.0732 3.9172-1.9283 7.5937-5.4383 9.7699-9.326 0.4233-0.75823 0.9956-0.63812 3.426 0.71974l2.9164 1.6302-1.36 2.3324c-2.1462 3.6793-7.3835 8.5554-11.168 10.397-6.3256 3.0798-13.566 3.7141-20.803 1.8226zm28.643-34.315c-1.0279-3.3175-3.5106-7.3491-5.7228-9.2912-7.3037-6.4129-18.602-7.3271-26.777-2.1664-2.9326 1.851-6.471 6.5084-7.7478 10.197l-0.9271 2.6789h41.614zm40.108 34.479c-5.7365-1.244-10.479-3.8157-14.595-7.9158-16.142-16.077-6.5241-43.199 16.756-47.253 10.677-1.8592 22.2 1.591 28.637 8.5744l2.7141 2.945-2.7038 1.7899-2.7033 1.7897-3.3581-3.0696c-9.2611-8.4636-25.024-8.3131-33.909 0.32354-9.7932 9.5174-8.4172 25.475 2.8646 33.222 9.7178 6.6729 24.258 5.2232 32.353-3.2258l1.7952-1.8746 2.4448 1.6174c1.3439 0.88968 2.4441 1.9665 2.4441 2.3929 0 0.42631-1.3471 2.0356-2.9946 3.5756-7.1804 6.7149-18.78 9.4868-29.745 7.1088zm86.637 0.13714c-3.607-1.1954-5.9949-2.5624-8.4484-4.8364l-2.1434-1.9877 2.2112-2.2127 2.2142-2.2122 3.3849 2.5622c3.4524 2.6131 7.3039 3.7461 10.18 2.995 4.7399-1.2378 7.8163-5.542 7.2168-10.099-0.394-3.0674-3.8091-6.5291-9.3047-9.4562-5.5758-2.97-9.9363-6.5375-11.33-9.2706-2.9426-5.7678-2.1638-12.139 2.0404-16.701 2.5951-2.8149 6.8073-4.6716 10.6-4.6716 2.9735 0 7.1886 1.8475 10.95 4.799l3.6817 2.8898-2.2983 2.3533-2.2973 2.3533-2.3243-2.1915c-4.1736-3.936-7.8274-4.7866-11.346-2.6413-4.3545 2.6548-5.0255 8.2676-1.4199 11.873 1.0096 1.0088 4.664 3.5731 8.1222 5.6984 10.88 6.6858 13.718 11.942 11.131 20.612-1.8841 6.3165-7.2511 10.315-14.427 10.747-2.1848 0.13138-4.9706-0.13132-6.3934-0.60219zm-350.81-36.979v-36.562l10.56 0.02c18.759 0.0213 24.42 1.1975 29.506 6.1373 3.5545 3.4526 4.9393 7.0975 4.9677 13.078 0 2.7736-0.3722 6.162-0.8452 7.5295-1.2046 3.4394-5.7955 8.1447-9.5027 9.7394-3.5786 1.5396-12.02 2.5614-21.29 2.5771l-6.4621 0.02v34.04h-6.9344zm28.212-4.9862c3.5538-0.68776 7.3585-3.4013 8.7705-6.2566 1.4987-3.0288 1.4987-8.5262 0-11.555-1.5002-3.0334-5.0109-5.3966-9.193-6.1898-1.8566-0.35189-7.3092-0.64031-12.116-0.64031h-8.7392v25.215l9.2975-0.0288c5.1147-0.02 10.505-0.26057 11.98-0.54605zm28.523 14.442v-27.106h6.9339v7.742l2.598-2.9519c3.4765-3.9493 6.8856-5.6654 11.27-5.6732 1.907 0 4.1071 0.34676 4.8913 0.77883l1.4242 0.78496-1.59 2.3387c-1.5324 2.2537-1.7251 2.3388-5.3044 2.3388-3.1895 0-4.058 0.27152-6.1378 1.9185-5.7607 4.5599-7.1389 10.971-7.1469 33.225v13.711h-6.9338zm259.72 3.1519v-23.954h-9.456v-6.3036h9.456v-20.802h6.9343v20.802h11.347v6.3036h-11.347v47.909h-6.9343zm-160.12-41.759c-3.3068-1.7379-3.9246-6.5757-1.1592-9.0786 1.9002-1.7195 6.3847-1.5816 8.2199 0.25344 1.8813 1.8819 1.953 5.9194 0.1392 7.7358-1.6324 1.6311-5.1532 2.1642-7.1986 1.0895z" fill="#fff" style="paint-order:markers stroke fill"/><path d="m4995 614.27v-202.27h-138.76v202.27z" fill="#84da51"/><g transform="translate(-6.166)" stroke="#000" stroke-width="4"><path d="m4950.3 589.69c0.8176-1.8364 3.2194-7.1374 5.3357-11.78 2.1171-4.6426 3.8495-8.8083 3.8495-9.2578 0-0.44909-4.2889-10.551-9.5312-22.448-5.2429-11.897-10.06-22.85-10.707-24.34l-1.1761-2.7088 7.5987 0.37474 8.215 18.596c4.518 10.228 8.5542 19.41 8.969 20.405 0.7225 1.7345 1.1264 0.98312 9.8063-18.281 4.9786-11.049 9.2587-20.318 9.509-20.597 0.2556-0.27816 2.0202-0.42049 3.9307-0.31459l3.4755 0.19116-16.556 36.562-16.555 36.562-7.6527 0.37467z" style="paint-order:markers stroke fill"/><path d="m4889.5 589.69c0.8181-1.8364 3.2192-7.1374 5.3363-11.78 2.1163-4.6426 3.8478-8.8083 3.8478-9.2578 0-0.44909-4.2888-10.551-9.531-22.448-5.2422-11.897-10.06-22.85-10.707-24.34l-1.1753-2.7088 7.5981 0.37474 8.2148 18.596c4.5181 10.228 8.555 19.41 8.9697 20.405 0.7229 1.7345 1.1257 0.98312 9.8064-18.281 4.9788-11.049 9.2582-20.318 9.5085-20.597 0.2555-0.27816 2.0207-0.42049 3.9311-0.31459l3.475 0.19116-33.111 73.124-7.6519 0.37467z" style="paint-order:markers stroke fill"/></g><path d="m5405.3 517.9c-1.296 0.0865-3.1858 5.9602-3.7127 6.5152-0.6433 0.67765-7.1552 0.30488-7.5484 1.639-0.4315 1.4641 5.5282 5.1242 5.3379 5.8537-2.6716 10.239-1.2693 7.8543 5.3101 4.5514 0.2661-0.13358 0.4217-0.2305 0.6248-0.26472 0.203 0.0342 0.3589 0.13114 0.6253 0.26472 0.4986 0.25031 0.9658 0.49473 1.4054 0.7294-0.6573 0.65727-1.4353 1.4353-2.0426 2.0424l-1.8644-1.8645c-0.1724 0.0919-0.3346 0.17965-0.4982 0.26815l2.3626 2.3627 10.816-10.815-0.7932-0.7931c-0.054 0.0513-0.1045 0.10187-0.1604 0.15335-0.077 0.0711-0.1594 0.14233-0.2391 0.21352l0.4262 0.42623c-1.2312 1.2312-2.4104 2.4105-3.681 3.6811-0.09-0.29426-0.3395-0.64224-0.4212-0.95534-0.1903-0.72948 5.7695-4.3896 5.3379-5.8537-0.393-1.3342-6.9049-0.96139-7.5481-1.639-0.5268-0.55499-2.4165-6.4288-3.713-6.5152zm-2.0833 2.5504-4.2966 4.2966c0.028-2e-3 0.057-5e-3 0.085-7e-3 0.2735-0.0226 0.5129-0.0474 0.7603-0.0715l2.8327-2.8327c0.1256-0.29178 0.2521-0.58633 0.3869-0.88431 0.076-0.16847 0.1539-0.33551 0.2321-0.50106zm4.2106 0.0438c0.072 0.15146 0.1423 0.30351 0.2118 0.45727 0.1412 0.31213 0.2741 0.62144 0.4052 0.92623l2.7883 2.7884c0.2548 0.0251 0.5035 0.0506 0.7863 0.0739 0.019 2e-3 0.04 3e-3 0.059 5e-3zm-4.1642 6.0284c0.388 0 0.7024 0.94346 0.7024 2.1073s-0.3144 2.1073-0.7024 2.1073c-0.3879 0-0.7024-0.94347-0.7024-2.1073s0.3145-2.1073 0.7024-2.1073zm4.0975 0c0.3876 0 0.7025 0.94346 0.7025 2.1073s-0.3149 2.1073-0.7025 2.1073c-0.3885 0-0.7025-0.94347-0.7025-2.1073s0.314-2.1073 0.7025-2.1073zm-12.071 1.8552-0.8045 0.80462 4.3069 4.307c0.048-0.19091 0.1044-0.40855 0.1559-0.61059l-3.6964-3.6965 0.4373-0.43738c-0.075-0.0675-0.1535-0.13509-0.2267-0.20242-0.06-0.0553-0.1142-0.10972-0.1725-0.16482z" color="#000000" color-rendering="auto" dominant-baseline="auto" fill="#fff" image-rendering="auto" shape-rendering="auto" solid-color="#000000" stop-color="#000000" style="font-feature-settings:normal;font-variant-alternates:normal;font-variant-caps:normal;font-variant-east-asian:normal;font-variant-ligatures:normal;font-variant-numeric:normal;font-variant-position:normal;font-variation-settings:normal;inline-size:0;isolation:auto;mix-blend-mode:normal;paint-order:markers stroke fill;shape-margin:0;shape-padding:0;text-decoration-color:#000000;text-decoration-line:none;text-decoration-style:solid;text-indent:0;text-orientation:mixed;text-transform:none;white-space:normal"/></g></svg>
